<svg width="1360" height="558" viewBox="0 0 1360 558" fill="none" xmlns="http://www.w3.org/2000/svg">
<g clip-path="url(#clip0_2071_2957)">
<rect width="1360" height="558" fill="#111827"/>
<rect opacity="0.9" width="1360" height="558" fill="#111827"/>
<g opacity="0.16" filter="url(#filter0_f_2071_2957)">
<path d="M1643.98 -50.876C1643.98 176.743 1459.46 361.264 1231.84 361.264C1004.22 361.264 819.697 176.743 819.697 -50.876C819.697 -278.495 1004.22 -463.016 1231.84 -463.016C1459.46 -463.016 1643.98 -278.495 1643.98 -50.876ZM968.068 -50.876C968.068 94.8 1086.16 212.894 1231.84 212.894C1377.51 212.894 1495.61 94.8 1495.61 -50.876C1495.61 -196.552 1377.51 -314.646 1231.84 -314.646C1086.16 -314.646 968.068 -196.552 968.068 -50.876Z" fill="#0284C7"/>
</g>
<path d="M-3.15443 -213.987L-33.0423 -159.676L-92.8181 -159.676L-122.706 -213.987L-92.8181 -268.299M-152.289 57.56L-92.2499 57.7326L-62.4939 111.496L-92.3818 165.807L-152.158 165.807L-182.045 111.496L-152.158 57.1843M-32.3626 -51.2254L-2.47468 -105.537L57.301 -105.537L87.1889 -51.2254L116.285 3.31961L86.3976 57.6311L26.6218 57.6311L-3.26603 3.3196L26.6218 -50.9919M-242.004 -214.069L-271.892 -159.757L-331.667 -159.757L-361.555 -214.069L-331.667 -268.38L-212.228 -268.187L-242.034 -322.174M146.721 -376.465L116.833 -322.153L57.0576 -322.153L27.1697 -376.465L57.0576 -430.776M116.803 -213.916L86.915 -268.228L27.1393 -268.228L-2.74862 -213.916L27.1393 -159.605M86.8136 -485.047L56.9257 -430.736L-2.85006 -430.736L-32.7379 -485.047L-2.85006 -539.359M-92.6253 -159.584L-122.513 -105.273L-182.289 -105.273L-212.177 -159.584L-182.289 -213.896L-122.736 -322.57L-92.8485 -376.881L-33.0727 -376.881L-3.18487 -322.57L-33.0727 -268.258L-92.8485 -268.258M-212.035 -51.0528L-152.259 -51.0528L-122.371 3.25867L-152.259 57.5702L-212.035 57.5702L-241.973 3.32975L-271.861 57.6412L-331.637 57.6412L-361.525 3.32974L-331.637 -50.9817M-331.809 57.3772L-272.024 57.3772L-242.136 111.689L-272.024 166L-331.809 166M26.9871 -593.477L86.7628 -593.477L116.651 -539.166L86.7628 -484.854L26.9871 -484.854M-33.0525 57.3671L26.7233 57.3671L56.6112 111.679L26.7233 166L-32.0154 166M-182.329 -430.908L-242.136 -431.264L-212.248 -485.575L-152.462 -485.575L-122.574 -431.264M-271.851 -594.736L-301.739 -540.425L-271.851 -486.113L-212.075 -486.113L-182.187 -540.425L-122.716 -539.196L-92.8282 -593.508L-33.0524 -593.508L-3.16456 -539.196M-242.156 -213.886L-212.268 -268.197L-152.482 -268.197L-122.594 -213.886M-331.667 -51.2254L-301.779 -105.537L-242.004 -105.537L-212.116 -51.2254M-272.003 -376.932L-301.891 -322.62L-361.667 -322.62L-391.555 -376.932M-271.973 -376.485L-242.085 -322.174L-182.309 -322.174L-152.421 -376.485L-182.309 -430.797L-182.36 -430.898L-122.584 -430.898L-92.6963 -376.587M-2.78918 -322.042L-2.83992 -322.143L56.9459 -322.143L86.8339 -267.832M-122.462 3.53282L-122.513 3.43129L-62.7374 3.43129L-32.8496 57.7428M56.9561 111.648L56.9054 111.547L116.681 111.547L146.599 165.848M-391.474 -159.392L-391.524 -159.493L-331.749 -159.493L-242.024 3.32975M-122.351 -105.395L-92.4629 -51.0833L-32.6872 -51.0833L-2.79933 -105.395L-32.6872 -159.706M-122.452 -430.807L-92.5644 -485.118L-32.7886 -485.118M296.12 -213.987L266.232 -159.676L206.456 -159.676L176.568 -213.987L206.456 -268.299M176.842 3.52268L176.792 3.42116L236.567 3.42117L266.455 57.7326L236.78 111.496M236.78 111.496L206.882 165.817L147.107 165.817L117.219 111.506L147.107 57.1945M236.78 111.496L266.222 166L325.998 166L355.886 111.679L325.998 57.3671L266.222 57.3671M386.189 -51.2254L415.56 3.31962L385.672 57.6311L325.896 57.6311L296.008 3.31962L325.896 -50.9919M386.189 -51.2254L416.047 -105.446M386.189 -51.2254L386.189 -51.2355L326.383 -51.134L296.495 -105.446L326.383 -159.757L386.159 -159.757M116.783 -105.446L86.8947 -159.757L27.119 -159.757L-2.76892 -105.446L27.1189 -51.134L57.2706 3.31961L27.3827 57.6311L-32.393 57.6311L-62.2809 3.3196L-32.393 -50.9919M57.2808 -214.069L27.3929 -159.757L-32.3829 -159.757L-62.2707 -214.069L-32.3828 -268.38M206.639 -159.595L176.751 -105.283L116.975 -105.283L87.0875 -159.595L116.975 -213.906M445.965 -376.465L416.077 -322.153L356.302 -322.153L326.414 -376.465L356.302 -430.776M416.047 -105.446L386.159 -159.757M416.047 -105.446L447.994 -105.537M386.159 -159.757L416.047 -213.926L386.159 -268.238L326.383 -268.238L296.495 -213.926L326.383 -159.615M386.058 -485.057L356.17 -430.746L296.394 -430.746L266.506 -485.057L296.394 -539.369M206.385 -268.268L266.171 -268.268L296.059 -322.58L266.171 -376.891L206.385 -376.891L176.497 -322.58L146.812 -268.187M87.1991 -51.0528L146.975 -51.0528L176.863 3.25869L146.975 57.5702L87.1991 57.5702M-32.5756 57.3773L27.2001 57.3773L57.088 111.689L27.19 166L-30.932 166M326.261 -593.477L386.047 -593.477L415.935 -539.166L386.047 -484.854L326.272 -484.854M-32.4843 -485.595L27.2915 -485.595L57.1793 -431.284L27.2915 -376.973L-32.4843 -376.973M57.1387 -431.274L87.0266 -485.585L146.802 -485.585L176.69 -431.274M27.4132 -594.746L-2.47466 -540.435L27.4132 -486.123L87.1991 -486.123L117.087 -540.435L176.558 -539.206L206.446 -593.518L266.222 -593.518L296.11 -539.206M57.1184 -213.896L87.0063 -268.207L146.782 -268.207L176.67 -213.896M27.2711 -376.952L-2.61672 -322.641L-62.4026 -322.641L-92.2905 -376.952M27.2915 -376.505L57.1793 -322.194L116.955 -322.194L146.843 -376.505L116.955 -430.817L116.904 -430.918L176.68 -430.918L206.568 -376.607M296.475 -322.062L296.424 -322.163L356.2 -322.163L386.088 -267.852M356.251 111.638L356.2 111.536L415.986 111.536L445.874 165.848M-92.1992 -159.392L-92.2499 -159.493L-32.4742 -159.493L-2.58632 -105.182M176.924 -105.395L206.811 -51.0833L266.587 -51.0833L296.475 -105.395L266.587 -159.706M176.822 -430.807L206.71 -485.118L266.486 -485.118M415.55 3.31949L447.994 3.42103M-62.1902 112.048L-30.7714 166.715M-331.759 -485.595L-271.983 -485.595L-242.095 -431.284L-271.983 -376.973L-331.759 -376.973L-361.576 -431.284L-331.759 -485.595Z" stroke="url(#paint0_linear_2071_2957)" stroke-width="5" stroke-miterlimit="10"/>
<path d="M1363.15 -213.987L1393.04 -159.676L1452.82 -159.676L1482.71 -213.987L1452.82 -268.299M1512.29 57.56L1452.25 57.7326L1422.49 111.496L1452.38 165.807L1512.16 165.807L1542.05 111.496L1512.16 57.1843M1392.36 -51.2254L1362.47 -105.537L1302.7 -105.537L1272.81 -51.2254L1243.71 3.31961L1273.6 57.6311L1333.38 57.6311L1363.27 3.3196L1333.38 -50.9919M1602 -214.069L1631.89 -159.757L1691.67 -159.757L1721.56 -214.069L1691.67 -268.38L1572.23 -268.187L1602.03 -322.174M1213.28 -376.465L1243.17 -322.153L1302.94 -322.153L1332.83 -376.465L1302.94 -430.776M1243.2 -213.916L1273.08 -268.228L1332.86 -268.228L1362.75 -213.916L1332.86 -159.605M1273.19 -485.047L1303.07 -430.736L1362.85 -430.736L1392.74 -485.047L1362.85 -539.359M1452.63 -159.584L1482.51 -105.273L1542.29 -105.273L1572.18 -159.584L1542.29 -213.896L1482.74 -322.57L1452.85 -376.881L1393.07 -376.881L1363.18 -322.57L1393.07 -268.258L1452.85 -268.258M1572.03 -51.0528L1512.26 -51.0528L1482.37 3.25867L1512.26 57.5702L1572.03 57.5702L1601.97 3.32975L1631.86 57.6412L1691.64 57.6412L1721.52 3.32974L1691.64 -50.9817M1691.81 57.3772L1632.02 57.3772L1602.14 111.689L1632.02 166L1691.81 166M1333.01 -593.477L1273.24 -593.477L1243.35 -539.166L1273.24 -484.854L1333.01 -484.854M1393.05 57.3671L1333.28 57.3671L1303.39 111.679L1333.28 166L1392.02 166M1542.33 -430.908L1602.14 -431.264L1572.25 -485.575L1512.46 -485.575L1482.57 -431.264M1631.85 -594.736L1661.74 -540.425L1631.85 -486.113L1572.08 -486.113L1542.19 -540.425L1482.72 -539.196L1452.83 -593.508L1393.05 -593.508L1363.16 -539.196M1602.16 -213.886L1572.27 -268.197L1512.48 -268.197L1482.59 -213.886M1691.67 -51.2254L1661.78 -105.537L1602 -105.537L1572.12 -51.2254M1632 -376.932L1661.89 -322.62L1721.67 -322.62L1751.55 -376.932M1631.97 -376.485L1602.08 -322.174L1542.31 -322.174L1512.42 -376.485L1542.31 -430.797L1542.36 -430.898L1482.58 -430.898L1452.7 -376.587M1362.79 -322.042L1362.84 -322.143L1303.05 -322.143L1273.17 -267.832M1482.46 3.53282L1482.51 3.43129L1422.74 3.43129L1392.85 57.7428M1303.04 111.648L1303.09 111.547L1243.32 111.547L1213.4 165.848M1751.47 -159.392L1751.52 -159.493L1691.75 -159.493L1602.02 3.32975M1482.35 -105.395L1452.46 -51.0833L1392.69 -51.0833L1362.8 -105.395L1392.69 -159.706M1482.45 -430.807L1452.56 -485.118L1392.79 -485.118M1063.88 -213.987L1093.77 -159.676L1153.54 -159.676L1183.43 -213.987L1153.54 -268.299M1183.16 3.52268L1183.21 3.42116L1123.43 3.42117L1093.54 57.7326L1123.22 111.496M1123.22 111.496L1153.12 165.817L1212.89 165.817L1242.78 111.506L1212.89 57.1945M1123.22 111.496L1093.78 166L1034 166L1004.11 111.679L1034 57.3671L1093.78 57.3671M973.81 -51.2254L944.44 3.31962L974.328 57.6311L1034.1 57.6311L1063.99 3.31962L1034.1 -50.9919M973.81 -51.2254L943.953 -105.446M973.81 -51.2254L973.81 -51.2355L1033.62 -51.134L1063.5 -105.446L1033.62 -159.757L973.841 -159.757M1243.22 -105.446L1273.11 -159.757L1332.88 -159.757L1362.77 -105.446L1332.88 -51.134L1302.73 3.31961L1332.62 57.6311L1392.39 57.6311L1422.28 3.3196L1392.39 -50.9919M1302.72 -214.069L1332.61 -159.757L1392.38 -159.757L1422.27 -214.069L1392.38 -268.38M1153.36 -159.595L1183.25 -105.283L1243.02 -105.283L1272.91 -159.595L1243.02 -213.906M914.035 -376.465L943.922 -322.153L1003.7 -322.153L1033.59 -376.465L1003.7 -430.776M943.953 -105.446L973.841 -159.757M943.953 -105.446L912.006 -105.537M973.841 -159.757L943.953 -213.926L973.841 -268.238L1033.62 -268.238L1063.5 -213.926L1033.62 -159.615M973.942 -485.057L1003.83 -430.746L1063.61 -430.746L1093.49 -485.057L1063.61 -539.369M1153.61 -268.268L1093.83 -268.268L1063.94 -322.58L1093.83 -376.891L1153.61 -376.891L1183.5 -322.58L1213.19 -268.187M1272.8 -51.0528L1213.02 -51.0528L1183.14 3.25869L1213.02 57.5702L1272.8 57.5702M1392.58 57.3773L1332.8 57.3773L1302.91 111.689L1332.81 166L1390.93 166M1033.74 -593.477L973.952 -593.477L944.065 -539.166L973.952 -484.854L1033.73 -484.854M1392.48 -485.595L1332.71 -485.595L1302.82 -431.284L1332.71 -376.973L1392.48 -376.973M1302.86 -431.274L1272.97 -485.585L1213.2 -485.585L1183.31 -431.274M1332.59 -594.746L1362.47 -540.435L1332.59 -486.123L1272.8 -486.123L1242.91 -540.435L1183.44 -539.206L1153.55 -593.518L1093.78 -593.518L1063.89 -539.206M1302.88 -213.896L1272.99 -268.207L1213.22 -268.207L1183.33 -213.896M1332.73 -376.952L1362.62 -322.641L1422.4 -322.641L1452.29 -376.952M1332.71 -376.505L1302.82 -322.194L1243.04 -322.194L1213.16 -376.505L1243.04 -430.817L1243.1 -430.918L1183.32 -430.918L1153.43 -376.607M1063.52 -322.062L1063.58 -322.163L1003.8 -322.163L973.912 -267.852M1003.75 111.638L1003.8 111.536L944.014 111.536L914.126 165.848M1452.2 -159.392L1452.25 -159.493L1392.47 -159.493L1362.59 -105.182M1183.08 -105.395L1153.19 -51.0833L1093.41 -51.0833L1063.52 -105.395L1093.41 -159.706M1183.18 -430.807L1153.29 -485.118L1093.51 -485.118M944.45 3.31949L912.006 3.42103M1422.19 112.048L1390.77 166.715M1691.76 -485.595L1631.98 -485.595L1602.09 -431.284L1631.98 -376.973L1691.76 -376.973L1721.58 -431.284L1691.76 -485.595Z" stroke="url(#paint1_linear_2071_2957)" stroke-width="5" stroke-miterlimit="10"/>
<g opacity="0.48" filter="url(#filter1_f_2071_2957)">
<circle cx="680" cy="744.046" r="400" fill="#0284C7"/>
</g>
</g>
<defs>
<filter id="filter0_f_2071_2957" x="579.697" y="-703.016" width="1304.28" height="1304.28" filterUnits="userSpaceOnUse" color-interpolation-filters="sRGB">
<feFlood flood-opacity="0" result="BackgroundImageFix"/>
<feBlend mode="normal" in="SourceGraphic" in2="BackgroundImageFix" result="shape"/>
<feGaussianBlur stdDeviation="120" result="effect1_foregroundBlur_2071_2957"/>
</filter>
<filter id="filter1_f_2071_2957" x="40" y="104.046" width="1280" height="1280" filterUnits="userSpaceOnUse" color-interpolation-filters="sRGB">
<feFlood flood-opacity="0" result="BackgroundImageFix"/>
<feBlend mode="normal" in="SourceGraphic" in2="BackgroundImageFix" result="shape"/>
<feGaussianBlur stdDeviation="120" result="effect1_foregroundBlur_2071_2957"/>
</filter>
<linearGradient id="paint0_linear_2071_2957" x1="-84.9795" y1="-439.219" x2="254.16" y2="22.7377" gradientUnits="userSpaceOnUse">
<stop stop-color="#3C82F9"/>
<stop offset="1" stop-color="#397FF7" stop-opacity="0"/>
</linearGradient>
<linearGradient id="paint1_linear_2071_2957" x1="1444.98" y1="-439.219" x2="1105.84" y2="22.7377" gradientUnits="userSpaceOnUse">
<stop stop-color="#3C82F9"/>
<stop offset="1" stop-color="#397FF7" stop-opacity="0"/>
</linearGradient>
<clipPath id="clip0_2071_2957">
<rect width="1360" height="558" fill="white"/>
</clipPath>
</defs>
</svg>
